<svg xmlns="http://www.w3.org/2000/svg" xmlns:xlink="http://www.w3.org/1999/xlink" version="1.1" id="Layer_1" x="0px" y="0px" width="100px" height="100px" viewBox="0 0 100 100" enable-background="new 0 0 100 100" xml:space="preserve">
<path d="M91.624,46.719c0,8.167-7.05,12.083-15.666,14.833c-8.617,2.75-27.517,2.75-42,0S7.625,52.127,7.625,46.719  c0-5.409,11.7-12.083,26-14.833s33.2-2.75,42,0S91.624,38.552,91.624,46.719z"/>
<path d="M19.343,33.877l-0.771-1.817c-0.43-1.013-1.681-1.814-2.78-1.782l-7.168,0.214c-1.1,0.033-1.71,0.912-1.358,1.954  l2.384,7.044c0.133,0.394,0.369,0.696,0.662,0.89c2.406-1.918,5.577-3.669,9.136-5.166C19.545,34.771,19.523,34.301,19.343,33.877z"/>
<path d="M19.343,59.446l-0.771,1.818c-0.43,1.012-1.681,1.814-2.78,1.781l-7.168-0.215c-1.1-0.032-1.71-0.912-1.358-1.953  l2.384-7.045c0.133-0.395,0.369-0.695,0.662-0.891c2.406,1.919,5.577,3.67,9.136,5.166C19.545,58.553,19.523,59.022,19.343,59.446z"/>
<path d="M40.485,63.707c-0.455,0.071-0.712,0.451-0.566,0.927l1.412,4.588c0.162,0.526,0.744,0.956,1.294,0.956H61.29  c0.55,0,1.132-0.43,1.294-0.956l0.29-0.962h-6.42c-0.174,0-0.359-0.137-0.41-0.304l-0.448-1.455  c-0.051-0.167,0.05-0.304,0.225-0.304h7.688l0.487-1.563c0.01-0.032,0.002-0.061,0.009-0.092c-2.152,0.129-4.443,0.197-6.848,0.197  C51.568,64.739,45.846,64.375,40.485,63.707z"/>
<path d="M94.251,45.304l-1.297-1.296c-0.247-0.247-0.477-0.378-0.68-0.421c0.218,0.979,0.35,2.014,0.35,3.132  c0,1.117-0.13,2.151-0.343,3.13c0.201-0.045,0.429-0.175,0.673-0.42l1.297-1.296C95.028,47.354,95.028,46.082,94.251,45.304z"/>
</svg>